# xmcd
#
# Track frame offsets: 
#        182
#        47472
#        70765
#        90122
#        114417
#        148927
#        188167
#        208332
#        241540
#        277180
#
# Disc length: 4163 seconds
#
# Revision: 10
# Processed by: cddbd v1.5.2PL0 Copyright (c) Steve Scherf et al.
# Submitted via: ExactAudioCopy v1.0b3
#
DISCID=8910410a
DTITLE=Schubert - The Complete Symphonies
DYEAR=1978
DGENRE=Classical
TTITLE0=Symphonie N3 en r majeur, D.200 - I. Adagio maestoso - Allegro
TTITLE0=con brio
TTITLE1=Symphonie N3 en r majeur, D.200 - II. Allegretto
TTITLE2=Symphonie N3 en r majeur, D.200 - III. Menuetto. Vivace - Trio
TTITLE3=Symphonie N3 en r majeur, D.200 - IV. Presto vivace
TTITLE4=Symphonie N4 en ut mineur, D.417 ''Tragique'' - I. Adagio molt
TTITLE4=o - Allegro vivace
TTITLE5=Symphonie N4 en ut mineur, D.417 ''Tragique'' - II. Andante
TTITLE6=Symphonie N4 en ut mineur, D.417 ''Tragique'' - III. Menuetto:
TTITLE6=Allegro vivace and Trio
TTITLE7=Symphonie N4 en ut mineur, D.417 ''Tragique'' - IV. Allegro
TTITLE8=Rosamunde, Princesse de Chypre, D.797 - Musique de ballet I
TTITLE9=Rosamunde, Princesse de Chypre, D.797 - Musique de ballet II
EXTD=YEAR: 1978
EXTT0=
EXTT1=
EXTT2=
EXTT3=
EXTT4=
EXTT5=
EXTT6=
EXTT7=
EXTT8=
EXTT9=
PLAYORDER=
